<?xml version="1.0" encoding="UTF-8" standalone="no"?>
<!-- Created with Inkscape (http://www.inkscape.org/) -->

<svg
   xmlns:svg="http://www.w3.org/2000/svg"
   xmlns="http://www.w3.org/2000/svg"
   version="1.1"
   width="1142.5"
   height="282"
   viewBox="0 0 1142.5 282"
   id="Layer_1"
   xml:space="preserve"><defs
   id="defs13" />
    
    <g
   id="g3">
        
        <g
   id="g5">
            
            <path
   d="m 634,0 c 0.333,0 0.667,0 1,0 1.546,1.454 0.881,5.119 1,8 7.983,3.58 7.246,19.896 2,26 9.202,4.772 14.837,6.632 26,3 13.714,-4.462 20.393,-18.69 33,-7 -0.493,3.507 -1.491,6.509 -1,11 -2.286,3.047 -6.96,3.707 -7,9 -9.028,3.809 -22.128,7.77 -32,5 2.752,9.915 17.211,8.122 26,12 2.749,-0.918 4.853,-2.481 7,-4 4.426,0.907 8.26,2.407 10,6 0.373,4.04 -3.42,3.914 -5,6 -1.232,2.101 -2.768,3.899 -4,6 -14.241,4.392 -22.101,-2.652 -31,-7 -4.258,-2.08 -8.699,-2.563 -13,-4 -2.645,-0.884 -4.887,-3.134 -8,-3 -4.695,0.202 -6.13,2.659 -10,5 -7.752,0.144 -13.842,1.45 -20,0 -2.696,-0.635 -4.661,-3.029 -7,-4 -5.626,-2.334 -12.858,-3.201 -19,-6 -1.728,8.738 5.482,17.176 9,24 3.333,0 6.667,0 10,0 5.088,6.578 18.544,4.789 24,11 2.881,-0.119 6.546,0.546 8,-1 2.861,0.805 3.988,3.345 7,4 12.195,-3.111 18.851,6.231 30,1 2.616,0.717 3.404,3.263 6,4 14.412,-2.785 24.909,6.882 36,1 4.974,3.138 15.113,4.339 21,1 5.446,2.647 16.95,5.015 23,1 5.234,2.623 18.918,3.378 24,0 4.946,2.911 19.102,3.195 24,0 18.372,5.05 36.577,2.117 58,4 6.551,0.576 13.373,1.771 20,2 12.03,0.415 23.021,-0.721 34,1 3.464,0.543 7.556,2.581 11,3 3.626,0.442 6.555,-0.442 10,0 1.615,0.207 3.381,1.67 5,2 2.018,0.411 4.15,-0.269 6,0 1.941,0.282 4.211,1.634 6,2 8.141,1.664 17.071,1.226 25,3 3.655,0.818 6.509,2.338 10,3 3.446,0.653 7.867,0.205 11,1 1.586,0.403 3.45,2.494 5,3 12.025,3.925 26.883,4.848 37,12 3.438,-0.438 5.605,0.396 8,1 5.789,2.544 9.584,7.082 18,7 8.979,6.194 21.158,11.379 33,18 5.054,2.826 10.674,5.903 16,9 11.046,6.422 21.097,11.684 19,31 -10.975,4.865 -9.61,-10.069 -14,-15 -5.262,-4.731 -11.295,-6.41 -19,-10 -7.552,-3.519 -19.146,-8.382 -28,-12 -1.752,-0.716 -3.428,-2.462 -5,-3 -2.138,-0.731 -4.774,-0.226 -7,-1 -1.932,-0.672 -1.784,-1.277 -3,-2 -4.558,-2.708 -12.501,-3.841 -19,-6 -4.515,-1.5 -7.051,-1.835 -14,-3 -2.605,-0.437 -4.637,-2.505 -7,-3 -2.238,-0.469 -4.672,0.406 -7,0 -3.266,-0.569 -9.476,-2.907 -15,-4 -12.503,-2.473 -24.649,-3.41 -39,-6 -2.874,-0.207 -5.08,0.254 -6,2 -14.324,-4.768 -30.653,-3.561 -45,-5 -13.411,-1.346 -29.279,1.333 -42,2 -20.328,1.065 -38.378,-0.449 -60,1 -10.701,0.718 -22.109,2.806 -34,4 -4.2,0.422 -8.49,-0.469 -12,0 -2.188,0.292 -4.824,1.826 -7,2 -9.36,0.748 -18.685,-0.094 -28,0 -6.401,0.064 -12.97,1.873 -19,2 -8.841,0.187 -17.489,-1.674 -26,-2 -15.959,-0.611 -31.664,1.87 -47,-2 -4.597,4.531 -5.992,8.668 -5,17 -7.536,11.131 -29.386,7.947 -41,15 1.672,3.661 3.493,7.174 6,10 8.367,2.683 21.057,7.445 34,7 8.256,-0.284 17.078,-2.414 17,8 -1.904,1.874 -2.513,0.109 -5,0 -2.273,3.06 -4.428,6.239 -8,8 -12.226,-0.231 -22.152,-3.276 -31,-8 -4.174,-2.229 -8.518,-7.886 -18,-5 -1.279,0.39 -1.157,1.355 -2,2 -0.406,0.311 -2.693,0.609 -3,1 -1.317,1.676 -0.922,4.856 -2,9 -0.639,2.455 -2.95,6.2 -3,8 -0.094,3.406 2.517,6.736 2,10 -1.941,12.271 -14.351,14.081 -24,5 -1.976,-13.977 7.185,-16.814 11,-25 -0.521,-1.479 -1.479,-2.521 -2,-4 -13.033,1.013 -19.532,17.319 -33,16 -4.372,-0.429 -6.704,-3.601 -11,-6 -0.678,-11.678 10.894,-11.105 18,-15 -4.639,-0.619 -14.463,2.188 -23,1 -4.45,-0.217 -4.464,-4.869 -7,-7 -4.1,0.1 -8.197,0.196 -11,-1 -5.886,-3.447 -9.179,-9.488 -13,-15 0,-2.667 0,-5.333 0,-8 -14.198,1.248 -32.254,6.417 -46,6 -2.05,-0.063 -4.787,-1.1 -7,-1 -5.743,0.259 -12.358,2.128 -20,3 -5.38,0.613 -9.518,1.014 -15,2 -2.983,0.536 -5.387,-0.333 -9,0 -2.766,0.255 -6.511,1.972 -9,2 -1.909,0.021 -3.988,-1.104 -6,-1 -5.002,0.259 -9.838,1.68 -15,2 -9.601,0.596 -19.755,-0.525 -30,0 -5.001,0.257 -10.026,1.023 -15,2 1.16,5.583 1.226,10.258 3,15 0.534,1.427 2.581,3.225 3,5 1.646,6.976 -0.683,14.254 1,22 1.602,7.375 8.374,12.35 15,15 6.339,2.536 16.878,2.017 17,12 -2.093,4.24 -8.154,4.513 -13,6 -9.057,-4.276 -17.769,-8.897 -24,-16 -3.044,-0.045 -3.889,2.111 -6,3 -0.948,3.848 0.031,7.289 1,12 0.827,4.019 3.478,8.986 3,12 -1.154,7.276 -6.101,8.972 -18,8 -11.081,-6.897 5.755,-19.73 0,-30 -0.396,-0.705 -2.493,-3.427 -4,-4 -7.378,-2.805 -11.529,3.422 -18,7 -1.237,0.684 -3.329,0.178 -5,1 -1.117,0.55 -2.336,2.764 -3,3 -4.041,1.439 -8.282,0.657 -13,2 -4.624,-1.4 -6.789,-8.237 -11,-7 -2.916,-5.625 0.958,-5.304 3,-9 15.734,-0.133 27.851,-0.034 37,-8 -2.858,-5.55 -11.896,-4.143 -18,-4 -2.244,-2.423 -6.425,-2.908 -9,-5 -1.172,-2.823 -0.199,-4.247 1,-7 -1.677,-2.572 -3.774,-0.749 -5,-5 3.02,-7.718 11.822,-1.582 15,2 9.703,0.184 14.962,7.105 22,7 0.932,-7.61 -7.291,-14.701 -12,-20 -0.33,-4.003 -2.723,-5.943 -4,-9 -9.375,2.6 -18.536,4.77 -28,8 -2.583,0.882 -5.517,2.632 -8,3 -2.364,0.351 -3.944,-0.967 -7,-1 -2.976,-0.032 -12.873,3.419 -15,1 -0.104,-0.118 0.08,-2 0,-2 -4.015,-0.002 -7.193,3.886 -11,2 -2.776,6.141 -4.456,12.143 -10,16 -2.912,2.026 -7.675,2.226 -11,4 -3.896,2.079 -6.49,3.991 -10,7 -2.568,2.201 -4.571,4.074 -10,6 -6.211,2.203 -11.521,2.094 -21,4 -4.059,0.816 -7.648,3.026 -12,4 -2.987,0.668 -6.987,0.245 -10,1 -5.663,1.418 -16.122,2.463 -25,4 -3.893,0.674 -7.222,2.331 -11,3 -4.547,0.805 -9.319,0.202 -14,1 -3.785,0.646 -7.427,2.631 -11,3 -13.93,1.438 -30.721,2.153 -40,-4 -4.548,-3.017 -5.85,-8.773 -10,-12 -0.015,-2.651 0.555,-5.889 -2,-6 0,-3.333 0,-6.667 0,-10 4.195,-9.805 9.581,-18.419 13,-29 3.14,0.473 2.642,-2.691 5,-3 0.907,-5.093 3.862,-8.138 6,-12 -1.509,-4.412 -3.219,-8.488 -3,-12 0.169,-2.715 2.272,-8.808 4,-11 2.084,-2.646 6.552,-2.838 9,-5 3.217,-2.841 2.385,-6.801 6,-8 1.837,1.088 2.493,5.522 5,3 7.213,-3.228 10.177,-11.191 17,-16 3.406,-2.4 10.014,-5.638 15,-8 4.247,-2.012 8.531,-1.486 13,-3 3.748,-1.27 7.152,-4.295 11,-5 4.944,-0.905 10.621,0.129 16,0 3.589,-1.998 8.036,-3.433 12,-4 5.401,-0.773 10.453,1 15,-1 2.58,0.086 1.052,4.281 5,3 4.044,-1.29 2.672,-7.995 8,-8 1.185,2.482 1.059,6.274 6,5 5.042,-0.292 5.047,-5.619 9,-7 1.778,0.888 2.542,2.792 6,2 1.279,-4.584 1.788,-6.063 1,-11 -0.758,-2.909 -4.941,-2.392 -6,-5 -3.398,-2.792 -4.758,-8.253 -8,-10 -7.334,0.226 -14.659,6.56 -22,9 -5.959,1.981 -13.775,4.123 -17,-2 1.611,-12.056 22.487,-4.846 25,-16 -6.622,-4.629 -19.324,-0.777 -24,-9 1.824,-5.825 -0.731,-11.609 1,-16 5.909,0.424 6.342,6.325 10,9 10.403,-2.07 9.423,7.244 20,5 -0.575,-7.758 -9.678,-6.988 -10,-15 0.003,-3.997 3.654,-4.346 5,-7 -0.605,-2.2 -2.513,-7.453 1,-8 3.305,1.029 2.99,5.677 4,9 11.32,-0.987 8.785,11.882 16,15 5.214,-1.674 1.426,-7.942 3,-12 1.706,-4.397 3.644,-6.844 9,-8 1.614,-2.053 0.132,-7.201 4,-7 1.734,1.599 2.166,4.501 2,8 13.907,6.308 -3.812,15.073 -3,23 6.977,3.89 12.514,-0.491 18,-3 1.775,-0.812 3.514,-0.213 5,-1 3.726,-1.973 6.445,-8.022 12,-7 3.418,3.969 -3.996,8.453 0,13 -3.954,3.38 -7.58,7.086 -14,8 1.356,5.917 5.997,9.023 6,15 0.002,4.815 -4.457,7.424 -4,13 5.853,0.853 5.012,-4.988 10,-5 5.191,0.104 15.25,0.893 20,-5 4.336,5.54 9.226,-3.003 14,0 2.111,-2.223 3.797,-4.87 7,-6 7.716,4.505 20.986,-1.901 26,-4 4.663,3.946 15.691,0.649 22,-2 1.57,0.43 0.854,3.146 4,2 6.549,-0.451 9.591,-4.409 15,-6 7.44,5.445 14.221,-1.253 21,-2 3.906,-0.431 7.69,1.646 12,1 3.81,-0.57 5.321,-3.249 9,-4 2.442,0.558 2.131,3.869 6,3 13.155,-2.592 24.294,-0.602 35,-4 5.593,4.274 12.839,-0.2 20,0 1.937,0.054 3.841,1.658 6,2 5.962,0.943 12.048,0.474 17,-2 4.459,4.482 14.205,2.836 20,1 1.55,1.117 2.083,3.25 5,3 4.791,-0.209 10.995,0.995 13,-2 2.213,4.089 12.183,3.59 17,2 3.691,4.618 7.994,4.014 14,3 0.512,-10.488 5.979,-16.021 6,-27 3.823,-2.264 3.996,-5.742 7,-8 10.538,-7.919 24.413,-2.797 38,-2 3.416,0.2 6.489,-0.346 9,0 3.907,0.538 7.692,3.493 11,2 1.853,-1.919 -3.583,-5.034 -2,-10 0.296,-4.037 4.376,-4.291 5,-8 0.609,-2.391 -1.256,-7.255 1,-8 2.755,2.245 4.225,5.776 5,10 9.111,1.556 10.187,11.146 15,17 4.185,-8.53 -3.766,-28.943 11,-29 0.565,-4.568 0.206,-6.356 3,-10 z m -35,156 c -4.547,-1.453 -8.482,-3.518 -13,-5 -3.867,3.466 -9.072,5.595 -12,10 8.724,-0.724 11.619,4.381 21,3 4.403,-2.71 8.709,-6.846 14,-9 3.782,-1.54 8.443,-0.177 11,-4 -7.133,-2.265 -15.764,2.089 -21,5 z"
   id="path7"
   style="fill-rule:evenodd" />
            
            <g
   id="g9" />
            
        </g>
        
    </g>
    
</svg>